<mxfile host="app.diagrams.net" modified="2021-04-24T03:45:07.342Z" agent="5.0 (Macintosh; Intel Mac OS X 10_14_6) AppleWebKit/537.36 (KHTML, like Gecko) Chrome/89.0.4389.128 Safari/537.36" etag="-HQG8gKurejF0NC21VNQ" version="14.6.6" type="github">
  <diagram name="Page-1" id="822b0af5-4adb-64df-f703-e8dfc1f81529">
    <mxGraphModel dx="983" dy="508" grid="1" gridSize="10" guides="1" tooltips="1" connect="1" arrows="1" fold="1" page="1" pageScale="1" pageWidth="1100" pageHeight="850" background="#ffffff" math="1" shadow="0">
      <root>
        <mxCell id="0" />
        <mxCell id="1" parent="0" />
        <mxCell id="p-lywX6QR9pk_JnIkyfO-4" value="" style="points=[];aspect=fixed;html=1;align=center;shadow=0;dashed=0;image;image=img/lib/allied_telesis/computer_and_terminals/Server_Desktop.svg;fontSize=15;" parent="1" vertex="1">
          <mxGeometry x="350" y="223.16" width="47.6" height="60.33" as="geometry" />
        </mxCell>
        <mxCell id="p-lywX6QR9pk_JnIkyfO-8" value="" style="pointerEvents=1;shadow=0;dashed=0;html=1;strokeColor=none;fillColor=#505050;labelPosition=center;verticalLabelPosition=bottom;verticalAlign=top;outlineConnect=0;align=center;shape=mxgraph.office.users.mobile_user;fontSize=15;" parent="1" vertex="1">
          <mxGeometry x="195" y="383.5" width="40" height="53" as="geometry" />
        </mxCell>
        <mxCell id="p-lywX6QR9pk_JnIkyfO-9" value="" style="pointerEvents=1;shadow=0;dashed=0;html=1;strokeColor=none;fillColor=#505050;labelPosition=center;verticalLabelPosition=bottom;verticalAlign=top;outlineConnect=0;align=center;shape=mxgraph.office.users.mobile_user;fontSize=15;" parent="1" vertex="1">
          <mxGeometry x="314" y="426" width="40" height="53" as="geometry" />
        </mxCell>
        <mxCell id="p-lywX6QR9pk_JnIkyfO-14" value="" style="shadow=0;dashed=0;html=1;strokeColor=none;fillColor=#505050;labelPosition=center;verticalLabelPosition=bottom;verticalAlign=top;outlineConnect=0;align=center;shape=mxgraph.office.databases.database_availability_group;fontSize=15;" parent="1" vertex="1">
          <mxGeometry x="485" y="236.5" width="45" height="46.99" as="geometry" />
        </mxCell>
        <mxCell id="p-lywX6QR9pk_JnIkyfO-15" value="" style="shadow=0;dashed=0;html=1;strokeColor=none;fillColor=#505050;labelPosition=center;verticalLabelPosition=bottom;verticalAlign=top;outlineConnect=0;align=center;shape=mxgraph.office.databases.database;fontSize=15;" parent="1" vertex="1">
          <mxGeometry x="530" y="372" width="20" height="28" as="geometry" />
        </mxCell>
        <mxCell id="p-lywX6QR9pk_JnIkyfO-19" value="" style="endArrow=classic;html=1;fontSize=15;" parent="1" source="p-lywX6QR9pk_JnIkyfO-14" target="p-lywX6QR9pk_JnIkyfO-56" edge="1">
          <mxGeometry width="50" height="50" relative="1" as="geometry">
            <mxPoint x="505" y="277.44760869565215" as="sourcePoint" />
            <mxPoint x="300" y="396" as="targetPoint" />
            <Array as="points" />
          </mxGeometry>
        </mxCell>
        <mxCell id="p-lywX6QR9pk_JnIkyfO-20" value="" style="endArrow=classic;html=1;fontSize=15;" parent="1" source="p-lywX6QR9pk_JnIkyfO-14" target="p-lywX6QR9pk_JnIkyfO-57" edge="1">
          <mxGeometry width="50" height="50" relative="1" as="geometry">
            <mxPoint x="520" y="284" as="sourcePoint" />
            <mxPoint x="410.9999999999999" y="394.90393013100436" as="targetPoint" />
          </mxGeometry>
        </mxCell>
        <mxCell id="p-lywX6QR9pk_JnIkyfO-21" value="" style="endArrow=classic;html=1;fontSize=15;" parent="1" source="p-lywX6QR9pk_JnIkyfO-14" target="p-lywX6QR9pk_JnIkyfO-15" edge="1">
          <mxGeometry width="50" height="50" relative="1" as="geometry">
            <mxPoint x="535.2784198016556" y="290.99" as="sourcePoint" />
            <mxPoint x="548.8855011884272" y="374" as="targetPoint" />
          </mxGeometry>
        </mxCell>
        <mxCell id="p-lywX6QR9pk_JnIkyfO-22" value="" style="endArrow=classic;html=1;exitX=0.025;exitY=0.871;exitDx=0;exitDy=0;exitPerimeter=0;dashed=1;fontSize=15;" parent="1" edge="1">
          <mxGeometry width="50" height="50" relative="1" as="geometry">
            <mxPoint x="348.1899999999998" y="278.70742999999993" as="sourcePoint" />
            <mxPoint x="230" y="380" as="targetPoint" />
          </mxGeometry>
        </mxCell>
        <mxCell id="p-lywX6QR9pk_JnIkyfO-24" value="$$\mathcal{D}_{1}$$" style="text;whiteSpace=wrap;html=1;fontSize=15;" parent="1" vertex="1">
          <mxGeometry x="241" y="390.5" width="20" height="50" as="geometry" />
        </mxCell>
        <mxCell id="p-lywX6QR9pk_JnIkyfO-25" value="$$\mathcal{D}_{2}$$" style="text;whiteSpace=wrap;html=1;fontSize=15;" parent="1" vertex="1">
          <mxGeometry x="358.6" y="428" width="20" height="50" as="geometry" />
        </mxCell>
        <mxCell id="p-lywX6QR9pk_JnIkyfO-27" value="$$\mathcal{D}$$" style="text;whiteSpace=wrap;html=1;fontSize=15;" parent="1" vertex="1">
          <mxGeometry x="465" y="233.49" width="20" height="50" as="geometry" />
        </mxCell>
        <mxCell id="p-lywX6QR9pk_JnIkyfO-31" value="" style="endArrow=classic;html=1;entryX=0.006;entryY=0.692;entryDx=0;entryDy=0;entryPerimeter=0;fontSize=15;" parent="1" edge="1">
          <mxGeometry width="50" height="50" relative="1" as="geometry">
            <mxPoint x="220" y="375" as="sourcePoint" />
            <mxPoint x="340.2855999999997" y="270.90836" as="targetPoint" />
          </mxGeometry>
        </mxCell>
        <mxCell id="p-lywX6QR9pk_JnIkyfO-32" value="" style="endArrow=classic;html=1;dashed=1;fontSize=15;" parent="1" edge="1">
          <mxGeometry width="50" height="50" relative="1" as="geometry">
            <mxPoint x="378" y="286" as="sourcePoint" />
            <mxPoint x="340" y="420" as="targetPoint" />
          </mxGeometry>
        </mxCell>
        <mxCell id="p-lywX6QR9pk_JnIkyfO-33" value="" style="endArrow=classic;html=1;dashed=1;fontSize=15;" parent="1" edge="1">
          <mxGeometry width="50" height="50" relative="1" as="geometry">
            <mxPoint x="396" y="276" as="sourcePoint" />
            <mxPoint x="490.4462606987511" y="394.5" as="targetPoint" />
          </mxGeometry>
        </mxCell>
        <mxCell id="p-lywX6QR9pk_JnIkyfO-34" value="" style="endArrow=classic;html=1;fontSize=15;" parent="1" edge="1">
          <mxGeometry width="50" height="50" relative="1" as="geometry">
            <mxPoint x="330" y="420" as="sourcePoint" />
            <mxPoint x="369" y="288" as="targetPoint" />
          </mxGeometry>
        </mxCell>
        <mxCell id="p-lywX6QR9pk_JnIkyfO-35" value="" style="endArrow=classic;html=1;entryX=0.852;entryY=1.001;entryDx=0;entryDy=0;entryPerimeter=0;fontSize=15;" parent="1" edge="1">
          <mxGeometry width="50" height="50" relative="1" as="geometry">
            <mxPoint x="482" y="400" as="sourcePoint" />
            <mxPoint x="387.5552" y="279.55033000000003" as="targetPoint" />
          </mxGeometry>
        </mxCell>
        <mxCell id="p-lywX6QR9pk_JnIkyfO-36" value="" style="endArrow=classic;html=1;fontSize=15;exitX=0.091;exitY=-0.013;exitDx=0;exitDy=0;exitPerimeter=0;" parent="1" source="p-lywX6QR9pk_JnIkyfO-41" edge="1">
          <mxGeometry width="50" height="50" relative="1" as="geometry">
            <mxPoint x="184.92000000000002" y="265.88" as="sourcePoint" />
            <mxPoint x="261" y="266" as="targetPoint" />
          </mxGeometry>
        </mxCell>
        <mxCell id="p-lywX6QR9pk_JnIkyfO-37" value="" style="endArrow=classic;html=1;dashed=1;fontSize=15;exitX=0.097;exitY=1.003;exitDx=0;exitDy=0;exitPerimeter=0;" parent="1" source="p-lywX6QR9pk_JnIkyfO-41" edge="1">
          <mxGeometry width="50" height="50" relative="1" as="geometry">
            <mxPoint x="201" y="286" as="sourcePoint" />
            <mxPoint x="261" y="286" as="targetPoint" />
          </mxGeometry>
        </mxCell>
        <mxCell id="p-lywX6QR9pk_JnIkyfO-38" value="Uplink" style="text;html=1;align=center;verticalAlign=middle;resizable=0;points=[];autosize=1;strokeColor=none;fontSize=15;" parent="1" vertex="1">
          <mxGeometry x="189" y="243.32" width="60" height="20" as="geometry" />
        </mxCell>
        <mxCell id="p-lywX6QR9pk_JnIkyfO-41" value="Downlink" style="text;html=1;align=center;verticalAlign=middle;resizable=0;points=[];autosize=1;strokeColor=none;fontSize=15;" parent="1" vertex="1">
          <mxGeometry x="179" y="266" width="80" height="20" as="geometry" />
        </mxCell>
        <mxCell id="p-lywX6QR9pk_JnIkyfO-43" value="User 2" style="text;html=1;align=center;verticalAlign=middle;resizable=0;points=[];autosize=1;strokeColor=none;fontSize=15;" parent="1" vertex="1">
          <mxGeometry x="303" y="479" width="60" height="20" as="geometry" />
        </mxCell>
        <mxCell id="p-lywX6QR9pk_JnIkyfO-44" value="User 1" style="text;html=1;align=center;verticalAlign=middle;resizable=0;points=[];autosize=1;strokeColor=none;fontSize=15;" parent="1" vertex="1">
          <mxGeometry x="184" y="437" width="60" height="20" as="geometry" />
        </mxCell>
        <mxCell id="p-lywX6QR9pk_JnIkyfO-46" value="&amp;nbsp;$$m$$" style="text;html=1;align=center;verticalAlign=middle;resizable=0;points=[];autosize=1;strokeColor=none;fontSize=15;" parent="1" vertex="1">
          <mxGeometry x="489" y="425.5" width="70" height="20" as="geometry" />
        </mxCell>
        <mxCell id="p-lywX6QR9pk_JnIkyfO-54" value="&lt;font style=&quot;font-size: 28px;&quot;&gt;···&lt;/font&gt;" style="text;html=1;align=center;verticalAlign=middle;resizable=0;points=[];autosize=1;strokeColor=none;strokeWidth=4;fontSize=28;" parent="1" vertex="1">
          <mxGeometry x="420" y="400" width="40" height="40" as="geometry" />
        </mxCell>
        <mxCell id="p-lywX6QR9pk_JnIkyfO-55" value="Server" style="text;html=1;align=center;verticalAlign=middle;resizable=0;points=[];autosize=1;strokeColor=none;fontSize=15;" parent="1" vertex="1">
          <mxGeometry x="310" y="213.49000000000004" width="60" height="20" as="geometry" />
        </mxCell>
        <mxCell id="p-lywX6QR9pk_JnIkyfO-56" value="" style="shadow=0;dashed=0;html=1;strokeColor=none;fillColor=#505050;labelPosition=center;verticalLabelPosition=bottom;verticalAlign=top;outlineConnect=0;align=center;shape=mxgraph.office.databases.database;fontSize=15;" parent="1" vertex="1">
          <mxGeometry x="241" y="381" width="20" height="28" as="geometry" />
        </mxCell>
        <mxCell id="p-lywX6QR9pk_JnIkyfO-57" value="" style="shadow=0;dashed=0;html=1;strokeColor=none;fillColor=#505050;labelPosition=center;verticalLabelPosition=bottom;verticalAlign=top;outlineConnect=0;align=center;shape=mxgraph.office.databases.database;fontSize=15;" parent="1" vertex="1">
          <mxGeometry x="359" y="418" width="20" height="28" as="geometry" />
        </mxCell>
        <mxCell id="p-lywX6QR9pk_JnIkyfO-58" value="Dataset" style="text;html=1;align=center;verticalAlign=middle;resizable=0;points=[];autosize=1;strokeColor=none;fontSize=15;" parent="1" vertex="1">
          <mxGeometry x="510" y="233.49" width="70" height="20" as="geometry" />
        </mxCell>
        <mxCell id="p-lywX6QR9pk_JnIkyfO-59" value="" style="pointerEvents=1;shadow=0;dashed=0;html=1;strokeColor=none;fillColor=#505050;labelPosition=center;verticalLabelPosition=bottom;verticalAlign=top;outlineConnect=0;align=center;shape=mxgraph.office.users.mobile_user;fontSize=15;" parent="1" vertex="1">
          <mxGeometry x="485" y="380" width="40" height="53" as="geometry" />
        </mxCell>
        <mxCell id="p-lywX6QR9pk_JnIkyfO-66" value="User" style="text;html=1;align=center;verticalAlign=middle;resizable=0;points=[];autosize=1;strokeColor=none;fontSize=15;" parent="1" vertex="1">
          <mxGeometry x="472" y="434.5" width="50" height="20" as="geometry" />
        </mxCell>
        <mxCell id="p-lywX6QR9pk_JnIkyfO-71" value="$$X_{1}$$" style="text;html=1;align=center;verticalAlign=middle;resizable=0;points=[];autosize=1;strokeColor=none;fontSize=15;" parent="1" vertex="1">
          <mxGeometry x="195" y="327" width="90" height="20" as="geometry" />
        </mxCell>
        <mxCell id="p-lywX6QR9pk_JnIkyfO-72" value="$$X_{2}$$" style="text;html=1;align=center;verticalAlign=middle;resizable=0;points=[];autosize=1;strokeColor=none;fontSize=15;" parent="1" vertex="1">
          <mxGeometry x="298" y="313" width="90" height="20" as="geometry" />
        </mxCell>
        <mxCell id="p-lywX6QR9pk_JnIkyfO-76" value="$$X_{m}$$" style="text;html=1;align=center;verticalAlign=middle;resizable=0;points=[];autosize=1;strokeColor=none;fontSize=15;" parent="1" vertex="1">
          <mxGeometry x="374" y="327" width="90" height="20" as="geometry" />
        </mxCell>
        <mxCell id="unsOBKIKhTvI_tbwzwL0-1" value="$$\mathcal{D}_{m}$$" style="text;whiteSpace=wrap;html=1;fontSize=15;" parent="1" vertex="1">
          <mxGeometry x="530" y="381.5" width="20" height="50" as="geometry" />
        </mxCell>
      </root>
    </mxGraphModel>
  </diagram>
</mxfile>
